<svg version="1" xmlns="http://www.w3.org/2000/svg" width="346.667" height="346.667" viewBox="0 0 260.000000 260.000000"><path d="M51.8 27.7c-1.4 1.8-.1 3.3 3.1 3.3 4.8 0 5.1 1.2 5.1 18.5 0 17.4-.3 18.5-5.2 18.5-2.7 0-4.8 2.3-3.5 3.7.4.3 5.5.6 11.4.6 10.1.1 10.8 0 10.8-1.8 0-1.5-.9-2.1-3.5-2.5l-3.5-.5v-36L70 31c2.3-.3 3.6-1.1 3.8-2.3.2-.9 0-1.7-.5-1.8-7.3-.7-20.7-.2-21.5.8zM77 27.9c0 1.5.8 2 3.3 2.3l3.2.3.3 15.5c.4 19.9 0 22-3.7 22-3.1 0-4.8 2.3-2.8 3.7.9.7 13 1 18 .4 2.2-.3-.1-3.6-2.8-4.1l-3-.5-.1-20.5-.1-20.5-6.2-.3c-5.5-.3-6.1-.1-6.1 1.7zM110.5 37.9c-6.1 2.7-9.8 9.4-9.9 17.7 0 7.3 2.7 13.1 7.3 15.8 3.9 2.3 11.6 2.4 15.8.2 4-2 7.5-6.4 7.1-9-.5-3.5-3.4-3-5.6.9-2.8 4.6-6.1 6.1-10.9 4.9-4.1-1-7-4.4-7.9-9.2l-.6-3.2h12.5c11.1 0 12.6-.2 13.1-1.8 1-3.3-1.2-9.5-4.8-13-2.9-3-4.3-3.6-8.8-3.9-2.9-.1-6.2.1-7.3.6zm12.9 7.2c4.5 5.3 3.8 5.9-6.9 5.9-8.7 0-9.5-.2-9.5-1.9 0-3.1 5.6-7.1 10-7.1 3 0 4.3.6 6.4 3.1zM150.8 39c-3.1 1.6-3.7 1.7-4.2.4-.9-2.2-11-1.6-11.4.8-.2 1.2.5 1.7 3 2l3.3.3v25l-2.8.3c-2.9.4-4.8 2.9-2.9 4.1.5.3 4.8.6 9.4.5 7.5 0 8.3-.2 8.3-2 0-1.3-.8-2-2.7-2.2l-2.8-.3V57.6c0-8.8.3-10.7 2-12.9 2.7-3.4 7-4.3 10.9-2.2 3.8 1.9 4.3 3.7 3.9 15.5l-.3 9.5-3 .5c-1.8.3-3.1 1.2-3.3 2.3-.2.9 0 1.7.5 1.8 5.9.4 16.7.3 17.5-.2 1.8-1.2 0-3.9-2.6-3.9-3.2 0-3.6-1.4-3.6-13.4 0-11.2-.8-13.4-6-16.1-4-2-8.8-1.9-13.2.5zM190.5 37.9c-6.1 2.7-9.8 9.4-9.9 17.7 0 7.3 2.7 13.1 7.3 15.8 3.9 2.3 11.6 2.4 15.8.2 4-2 7.5-6.4 7.1-9-.5-3.5-3.4-3-5.6.9-2.8 4.6-6.1 6.1-10.9 4.9-4.1-1-7-4.4-7.9-9.2l-.6-3.2h12.5c11.1 0 12.6-.2 13.1-1.8 1-3.3-1.2-9.5-4.8-13-2.9-3-4.3-3.6-8.8-3.9-2.9-.1-6.2.1-7.3.6zm12.9 7.2c4.5 5.3 3.8 5.9-6.9 5.9-8.7 0-9.5-.2-9.5-1.9 0-3.1 5.6-7.1 10-7.1 3 0 4.3.6 6.4 3.1zM119.4 99c-5 2-7 9.6-3.9 15 2 3.5 1.9 3.6-2.1 6.1-4.9 3-7.4 7.4-7.4 12.9.1 8.6 4.9 13 14.1 13 4.3 0 6.5-.6 9.3-2.5l3.6-2.4 3.6 2.4c2.9 2 5 2.5 9.6 2.5 5.6 0 5.9-.1 5.6-2.3-.3-1.9-1-2.2-5.3-2.5-3.7-.2-5.7-1-7.7-2.9l-2.6-2.5 3.4-8.2c3-7.2 7-12.6 9.3-12.6.5 0 1.9.8 3.1 1.8 1.7 1.3 2.1 2.4 1.6 4-.9 2.6-2.4 2.8-4.1.5-1.6-2.2-4.5-1-4.5 2 0 5.1 5.9 6.4 10.6 2.3 5.8-4.9 2-14.6-5.6-14.6-6.3 0-10.9 4.4-14.6 14-.9 2.5-2 4.9-2.5 5.4-.4.4-2.4-1.7-4.5-4.9-3.6-5.4-3.7-5.7-1.9-6.8 4.5-2.5 7.5-6.8 7.5-10.9 0-5.2-1.3-7.4-5.1-8.7-3.7-1.3-6.5-1.3-9.5-.1zm8.4 5.2c.7.7 1.2 2.3 1.2 3.5 0 2.7-4.4 7.7-6.3 7-2-.6-3.9-7.5-2.7-9.8 1.2-2.2 5.9-2.6 7.8-.7zM129 137c0 1.8-4.6 4-8.5 4-6.3 0-9.3-3.5-8.6-10 .3-2.8 2.2-5.6 4.9-7.2l2.6-1.6 4.8 7c2.6 3.8 4.8 7.3 4.8 7.8zM51.5 172.6c-7.7 4-10.7 9.7-11.3 21.6-.4 8-.2 9.3 2.2 14.3 1.5 3 4 6.3 5.5 7.4 6.3 4.5 16.3 4.6 22.3.1l2.8-2.1v2.6c0 1.8.5 2.5 2 2.5 1.8 0 2-.7 2-8.1 0-8.7 1-11.9 3.9-11.9 2.6 0 4.6-2.6 2.9-3.6-1.9-1.2-20.8-1.1-21.8.1-1.5 1.8.4 3.3 4.5 3.7 3.8.3 4 .5 4.3 4 .2 2-.4 5-1.2 6.7-2.7 5.2-11.7 6.5-17.5 2.5-8.6-6-8-30.3.8-34.8 5.2-2.8 11-2.4 15 1 2.4 2 3.1 3.4 3.1 6.2 0 4.4 1.3 6.7 3.3 5.9 1-.4 1.6-2.8 1.9-8.9.3-4.6.3-8.9.1-9.6-.8-1.9-3.4-1.4-4 .8-.5 1.9-.5 1.9-4.4 0-4.6-2.4-12.2-2.6-16.4-.4zM150.8 172.1c-2.1 1.3 0 3.9 3.2 3.9h3l-.2 18.7-.3 18.8-3.2.3c-2.5.2-3.3.8-3.3 2.3 0 1.7.8 1.9 9.5 1.9 8.8 0 9.5-.1 9.5-2 0-1.6-.7-2-3-2-4.1 0-4.4-1.7-3.8-23.6.3-10.1.3-18.4-.1-18.5-5.6-.4-10.4-.3-11.3.2zM92.1 174.8c-2 3.8 3.1 7.1 5.9 3.7.6-.8.9-2.3.5-3.5-.8-2.5-5.1-2.7-6.4-.2zM178.1 174.8c-2 3.8 3.1 7.1 5.9 3.7.6-.8.9-2.3.5-3.5-.8-2.5-5.1-2.7-6.4-.2zM202.1 185.2c-5 3.4-7.1 8.1-7.1 15.8 0 7.7 2.1 12.4 7.1 15.8 2.8 2 4.4 2.3 9.2 2 3.7-.3 6.7-1.1 8.5-2.5 8.5-6.3 9.4-20.7 1.8-29.1-3.1-3.3-3.9-3.6-9.7-4-5.5-.3-6.9 0-9.8 2zm13.3 2.9c5.3 2.4 7.4 13.8 3.8 20.9-3.6 7.2-13.3 7.5-16.9.6-2.1-3.9-2.3-12-.4-16.4 2.2-5.3 8.1-7.5 13.5-5.1zM86.5 185c-1 1.7.4 3 3.4 3 3.4 0 4.1 2.3 4.1 13 0 10.8-.7 12.8-4.4 13.2-1.9.2-3.1.9-3.1 1.8 0 1.2 1.7 1.5 9.5 1.5 7.7 0 9.5-.3 9.5-1.5 0-.9-1.2-1.7-3-2l-3-.5L99 199l-.5-14.5-5.7-.3c-3.2-.2-5.9.2-6.3.8zM107.5 185c-1 1.6.4 3 2.9 3 3.1 0 3.6 2 3.6 14.2 0 9.3.1 9.9 2.8 12.9 2.4 2.7 3.7 3.3 8.5 3.7 4.5.4 6.2 0 9.1-1.8 3-1.8 3.6-1.9 3.6-.6 0 1.3 1.2 1.6 5.5 1.6 4.8 0 5.5-.2 5.5-2 0-1.5-.7-2-2.9-2-1.8 0-3.1-.6-3.6-1.8-.3-.9-.6-7.1-.5-13.7.1-6.6.1-12.6.1-13.3-.1-2.1-10.5-1.2-10.9 1-.2 1.2.5 1.7 2.5 2l2.8.3.3 9.5c.3 11.2-.8 13.8-6 15.8-3.1 1.2-4.3 1.2-6.7.2-4.1-1.7-5.1-5.3-5.1-18.6V184h-5.4c-3 0-5.8.4-6.1 1zM172.5 185c-1 1.7.4 3 3.4 3 3.4 0 4.1 2.3 4.1 13 0 10.8-.7 12.8-4.4 13.2-1.9.2-3.1.9-3.1 1.8 0 1.2 1.7 1.5 9.5 1.5 7.7 0 9.5-.3 9.5-1.5 0-.9-1.2-1.7-3-2l-3-.5-.5-14.5-.5-14.5-5.7-.3c-3.2-.2-5.9.2-6.3.8z"/></svg>