<?xml version="1.0" standalone="no"?>
<!DOCTYPE svg PUBLIC "-//W3C//DTD SVG 20010904//EN"
 "http://www.w3.org/TR/2001/REC-SVG-20010904/DTD/svg10.dtd">
<svg version="1.0" xmlns="http://www.w3.org/2000/svg"
 width="894.000000pt" height="894.000000pt" viewBox="0 0 894.000000 894.000000"
 preserveAspectRatio="xMidYMid meet">
<metadata>
Created by potrace 1.11, written by Peter Selinger 2001-2013
</metadata>
<g transform="translate(0.000000,894.000000) scale(0.100000,-0.100000)"
fill="#000000" stroke="none">
<path d="M5136 8418 c-8 -18 -67 -172 -131 -343 -65 -170 -119 -312 -121 -314
-2 -2 -53 13 -114 33 -61 20 -162 48 -225 63 l-113 28 -5 53 c-15 146 -144
283 -312 331 -61 18 -325 71 -351 71 -33 0 -73 -20 -79 -41 -9 -29 15 -57 95
-108 96 -61 384 -270 388 -282 2 -5 -21 -9 -51 -9 -84 0 -207 -27 -372 -81
l-149 -49 -46 17 c-62 25 -206 24 -280 -1 -79 -27 -119 -48 -260 -139 -124
-81 -246 -140 -392 -192 -67 -24 -78 -31 -78 -51 0 -47 152 -112 285 -121 140
-10 268 21 435 105 168 84 272 164 354 271 l44 56 163 53 c90 29 193 57 229
62 82 12 227 13 234 1 4 -5 1 -32 -4 -59 l-11 -49 -43 8 c-55 10 -195 -4 -261
-26 -102 -35 -236 -117 -385 -236 -150 -119 -203 -171 -195 -191 7 -17 29 -18
264 -18 225 0 268 3 336 20 219 56 335 208 360 473 l7 76 32 -5 c161 -29 476
-116 476 -132 0 -4 -19 -16 -42 -26 -89 -41 -162 -143 -206 -287 -11 -36 -35
-132 -52 -214 -27 -128 -30 -150 -17 -162 12 -12 22 -12 71 6 168 59 303 217
352 409 10 40 14 94 12 148 -2 46 0 84 3 84 3 0 70 -33 150 -72 155 -78 313
-177 421 -264 72 -58 88 -63 109 -38 12 15 7 22 -36 61 -73 66 -283 203 -428
279 l-129 66 53 31 c77 44 150 121 190 202 32 66 34 75 34 175 0 100 -2 109
-36 180 -45 93 -112 180 -140 180 -13 0 -25 -11 -33 -32z m108 -168 c28 -58
31 -75 31 -155 0 -82 -3 -97 -32 -156 -39 -79 -107 -145 -191 -188 -67 -34
-90 -38 -98 -18 -4 10 111 326 216 592 11 29 12 30 27 10 8 -11 29 -49 47 -85z
m-1269 -14 c101 -24 195 -56 235 -81 86 -54 148 -144 153 -222 2 -37 1 -38
-27 -35 -32 4 -111 55 -306 197 -69 50 -153 108 -187 129 -35 20 -65 41 -68
45 -5 9 76 -5 200 -33z m-495 -496 l25 -7 -25 -10 c-14 -6 -64 -25 -112 -43
-94 -35 -112 -48 -102 -74 10 -26 34 -21 259 60 35 12 -54 -73 -133 -127 -98
-68 -261 -145 -362 -170 -107 -27 -271 -24 -339 7 l-45 20 50 18 c100 38 253
114 377 190 70 43 152 89 182 102 82 38 170 51 225 34z m730 -81 c61 -13 63
-21 14 -117 -54 -110 -144 -176 -279 -207 -48 -12 -113 -15 -253 -13 l-187 3
95 79 c255 213 442 291 610 255z m704 -51 c17 -64 -8 -196 -54 -294 -37 -77
-133 -180 -198 -213 -24 -12 -46 -21 -48 -19 -7 8 86 358 106 397 29 59 74
106 123 130 53 27 63 26 71 -1z"/>
<path d="M6631 6100 c-472 -46 -835 -240 -1074 -575 -63 -88 -157 -284 -191
-395 -108 -359 -107 -787 5 -1130 137 -426 432 -728 849 -871 427 -147 965
-123 1375 61 37 17 70 28 73 26 2 -3 10 -62 18 -132 7 -69 15 -128 18 -131 3
-3 12 -3 20 0 14 6 16 76 18 594 l3 588 60 7 c33 3 90 9 128 13 57 6 67 9 67
26 0 18 -13 19 -450 19 -437 0 -450 -1 -450 -19 0 -17 10 -20 68 -26 37 -3 96
-9 132 -13 l65 -7 3 -437 2 -438 -42 -27 c-166 -104 -372 -149 -610 -131 -456
32 -774 287 -922 737 -78 235 -100 398 -100 726 -1 255 8 356 45 538 79 393
275 684 553 824 135 68 247 98 425 113 478 42 816 -200 955 -682 19 -66 28
-84 44 -86 20 -3 20 -1 16 305 -3 169 -7 318 -10 331 -3 17 -20 30 -57 47
-119 52 -316 104 -502 131 -127 18 -411 26 -534 14z"/>
<path d="M1072 6053 c3 -19 27 -23 201 -38 l77 -7 -2 -1436 -3 -1437 -50 -6
c-27 -4 -89 -10 -137 -14 -78 -6 -88 -9 -88 -26 0 -18 14 -19 465 -19 451 0
465 1 465 19 0 17 -10 20 -87 26 -49 4 -110 10 -138 14 l-50 6 0 1435 0 1435
55 7 c30 4 91 11 135 15 64 6 80 11 83 26 3 16 -24 17 -463 17 -439 0 -466 -1
-463 -17z"/>
<path d="M3359 5177 c-83 -28 -131 -64 -166 -125 -24 -40 -28 -58 -28 -122 0
-64 5 -85 33 -145 18 -38 45 -85 59 -103 14 -18 23 -35 22 -37 -2 -1 -56 -8
-120 -13 -140 -13 -211 -38 -277 -97 -68 -61 -97 -128 -96 -225 0 -62 4 -86
27 -132 70 -143 230 -221 452 -221 174 1 321 51 433 149 46 40 55 44 70 33 9
-8 37 -30 62 -50 114 -93 216 -133 340 -133 71 -1 94 4 140 25 78 37 114 71
149 141 26 51 31 73 31 133 0 61 -12 127 -27 144 -2 3 -19 -14 -38 -36 -42
-49 -100 -68 -181 -60 -65 7 -165 51 -216 96 l-37 32 41 68 41 68 131 61 c72
34 142 63 156 65 14 2 -96 4 -245 4 -148 0 -259 -2 -245 -4 14 -2 56 -32 94
-67 l70 -63 -30 -48 c-16 -27 -35 -50 -42 -53 -11 -3 -272 233 -272 247 0 4
11 13 25 19 14 7 48 33 75 58 108 101 100 251 -18 341 -96 73 -280 95 -413 50z
m327 -36 c54 -24 108 -71 130 -113 18 -34 18 -119 0 -161 -17 -41 -87 -102
-135 -118 l-35 -12 -86 90 c-132 139 -170 228 -123 291 41 55 152 65 249 23z
m-260 -653 c234 -240 294 -304 294 -316 0 -15 -112 -99 -165 -123 -48 -22
-142 -25 -190 -5 -81 34 -166 144 -199 255 -21 73 -21 194 0 231 21 35 83 72
135 79 3 1 60 -54 125 -121z"/>
<path d="M1870 1548 c-39 -11 -85 -50 -105 -88 -51 -99 -9 -206 100 -256 85
-40 171 -28 227 32 98 105 42 265 -108 310 -53 16 -65 16 -114 2z m103 -39
c80 -22 136 -102 123 -174 -19 -101 -137 -144 -234 -85 -105 64 -91 225 24
260 39 11 44 11 87 -1z"/>
<path d="M6551 1531 c-75 -26 -122 -76 -128 -135 -17 -150 177 -168 312 -29
l35 36 0 -38 c0 -82 -78 -147 -180 -150 -41 -2 -56 -6 -58 -18 -4 -20 52 -32
100 -22 83 18 147 70 174 142 15 39 16 52 5 91 -15 59 -43 96 -85 116 -56 26
-114 29 -175 7z m157 -51 c17 -11 32 -26 32 -34 0 -40 -131 -135 -187 -136
-62 0 -104 49 -84 99 34 81 160 119 239 71z"/>
<path d="M2410 1313 c-87 -33 -134 -148 -96 -236 58 -136 284 -177 332 -60 20
48 10 87 -35 132 -43 43 -143 76 -205 69 -44 -5 -45 3 -5 36 57 48 176 26 230
-43 22 -28 27 -30 43 -18 17 13 16 15 -16 50 -48 50 -110 77 -178 76 -30 0
-62 -3 -70 -6z m130 -163 c71 -36 90 -91 45 -135 -63 -64 -218 5 -240 106 -4
17 -3 35 1 39 27 25 136 20 194 -10z"/>
<path d="M6018 1304 c-6 -5 97 -320 108 -333 2 -2 12 0 22 5 18 8 15 19 -37
169 -52 150 -71 182 -93 159z"/>
<path d="M5450 1150 c-159 -55 -185 -245 -44 -328 56 -33 165 -27 224 12 102
67 116 193 31 277 -34 35 -91 59 -136 59 -11 -1 -45 -9 -75 -20z m137 -40
c148 -66 87 -270 -81 -270 -180 0 -200 238 -23 280 49 12 59 11 104 -10z"/>
<path d="M3328 1084 c-52 -16 -61 -24 -48 -44 7 -12 15 -12 52 1 66 22 133 17
163 -11 49 -46 23 -71 -103 -94 -90 -17 -109 -24 -134 -53 -17 -19 -43 -102
-34 -110 3 -3 58 -14 123 -24 65 -10 133 -21 151 -24 27 -5 32 -3 32 14 0 15
-8 21 -32 25 -18 3 -73 13 -123 21 -49 8 -93 15 -97 15 -16 0 -7 30 15 54 17
20 43 30 117 46 113 24 144 43 148 92 3 29 -2 40 -28 61 -54 46 -120 56 -202
31z"/>
<path d="M4915 1061 c-39 -10 -108 -46 -123 -64 -10 -11 -9 -17 2 -26 12 -10
22 -7 53 13 54 37 106 50 148 36 74 -24 53 -65 -60 -121 -108 -53 -125 -73
-125 -150 0 -33 3 -59 8 -58 4 0 72 8 152 17 126 15 145 20 148 36 4 21 6 21
-200 0 l-68 -7 0 30 c0 37 16 51 107 98 112 58 139 92 117 150 -13 34 -102 59
-159 46z"/>
<path d="M3955 1030 c-22 -3 -57 -15 -78 -26 -33 -17 -36 -22 -25 -37 12 -16
15 -16 54 3 77 38 184 21 184 -30 0 -26 -30 -44 -120 -70 -111 -33 -133 -53
-145 -132 l-7 -46 53 -6 c30 -3 100 -8 155 -11 93 -5 102 -3 107 14 4 16 -4
19 -62 25 -36 3 -96 6 -133 6 -66 0 -68 1 -68 25 0 39 30 60 134 95 125 41
160 81 120 138 -30 43 -98 64 -169 52z"/>
<path d="M2893 864 c-3 -8 1 -22 9 -30 13 -13 16 -13 27 0 7 9 11 23 7 31 -7
20 -35 19 -43 -1z"/>
<path d="M4444 705 c-4 -9 -2 -21 4 -27 15 -15 44 -1 40 19 -4 23 -36 29 -44
8z"/>
</g>
</svg>
